<?xml version="1.0" standalone="no"?>
<!DOCTYPE svg PUBLIC "-//W3C//DTD SVG 20010904//EN"
 "http://www.w3.org/TR/2001/REC-SVG-20010904/DTD/svg10.dtd">
<svg version="1.0" xmlns="http://www.w3.org/2000/svg"
 width="150.000000pt" height="150.000000pt" viewBox="0 0 150.000000 150.000000"
 preserveAspectRatio="xMidYMid meet">
<metadata>
Created by potrace 1.15, written by Peter Selinger 2001-2017
</metadata>
<g transform="translate(0.000000,150.000000) scale(0.100000,-0.100000)"
fill="#000000" stroke="none">
<path d="M552 1470 c-125 -33 -225 -92 -327 -195 -152 -151 -215 -304 -215
-520 0 -216 63 -369 215 -520 151 -152 304 -215 520 -215 216 0 369 63 520
215 152 151 215 304 215 520 0 216 -63 369 -215 520 -103 104 -203 162 -331
195 -104 27 -280 27 -382 0z m588 -365 l0 -135 -115 0 -115 0 0 -415 0 -415
-160 0 -160 0 0 415 0 415 -110 0 -110 0 0 135 0 135 385 0 385 0 0 -135z"/>
</g>
</svg>
