<?xml version="1.0" standalone="no"?>
<!DOCTYPE svg PUBLIC "-//W3C//DTD SVG 20010904//EN"
 "http://www.w3.org/TR/2001/REC-SVG-20010904/DTD/svg10.dtd">
<svg version="1.0" xmlns="http://www.w3.org/2000/svg"
 width="600.000000pt" height="600.000000pt" viewBox="0 0 600.000000 600.000000"
 preserveAspectRatio="xMidYMid meet">
<metadata>
Created by potrace 1.15, written by Peter Selinger 2001-2017
</metadata>
<g transform="translate(0.000000,600.000000) scale(0.100000,-0.100000)"
fill="#000000" stroke="none">
<path d="M1817 5985 c-388 -74 -694 -361 -789 -741 -32 -127 -32 -341 0 -468
43 -172 138 -339 263 -465 126 -125 293 -220 465 -263 128 -32 340 -32 472 1
51 13 95 21 96 19 2 -1 40 -80 85 -174 l82 -170 -38 -40 c-21 -21 -47 -51 -58
-66 l-20 -27 -410 64 c-225 35 -415 64 -421 65 -6 0 -16 28 -22 62 -17 92 -54
158 -127 226 -87 82 -149 106 -275 106 -134 0 -192 -24 -286 -118 -94 -94
-118 -152 -118 -286 0 -134 24 -192 118 -286 94 -94 152 -118 286 -118 75 0
107 5 153 23 72 28 174 121 208 188 13 26 25 50 27 52 1 3 191 -24 421 -60
l419 -64 6 -45 c8 -58 45 -136 85 -183 l33 -36 -273 -608 c-150 -334 -273
-609 -274 -611 -2 -2 -43 4 -91 14 -161 30 -319 8 -469 -65 -148 -73 -270
-196 -341 -346 -53 -111 -68 -184 -68 -320 0 -136 15 -209 68 -320 92 -194
276 -346 486 -402 89 -24 281 -24 370 0 259 69 467 277 537 537 24 88 24 281
0 370 -25 94 -87 215 -150 291 -46 55 -142 139 -194 167 -11 7 44 137 259 616
l273 608 80 2 c63 1 92 7 136 28 l57 26 738 -630 c407 -347 754 -643 772 -659
l33 -29 -25 -54 c-152 -322 29 -699 375 -781 294 -69 593 118 664 416 70 297
-118 593 -421 665 -141 33 -309 0 -434 -85 -53 -36 -64 -40 -78 -29 -9 7 -354
301 -767 652 -412 351 -752 640 -754 642 -2 2 2 17 9 35 12 29 16 30 54 25 23
-3 149 -15 281 -26 298 -26 285 -24 285 -58 1 -143 101 -337 223 -431 308
-237 735 -140 907 207 168 338 -38 759 -408 838 -271 57 -537 -73 -661 -322
-16 -33 -33 -72 -36 -87 -7 -26 -10 -27 -54 -22 -25 3 -160 17 -299 30 -140
13 -256 26 -259 29 -3 3 -14 29 -23 57 l-18 51 237 196 c130 108 396 329 591
491 195 161 362 300 371 308 15 12 25 11 80 -8 146 -49 299 15 363 151 29 63
29 177 0 240 -27 57 -87 117 -144 144 -63 29 -177 29 -240 0 -129 -60 -198
-214 -156 -349 12 -39 13 -52 3 -61 -6 -6 -279 -233 -606 -504 l-593 -492 -61
28 c-39 17 -85 29 -129 32 l-67 5 -86 175 c-47 96 -84 176 -83 178 2 1 37 25
78 52 148 99 266 238 345 404 68 144 89 243 89 418 0 175 -21 274 -89 418
-103 217 -260 374 -477 477 -52 24 -132 54 -178 65 -113 28 -307 35 -413 15z"/>
</g>
</svg>
