<?xml version="1.0" standalone="no"?>
<!DOCTYPE svg PUBLIC "-//W3C//DTD SVG 20010904//EN"
 "http://www.w3.org/TR/2001/REC-SVG-20010904/DTD/svg10.dtd">
<svg version="1.0" xmlns="http://www.w3.org/2000/svg"
 width="284.000000pt" height="242.000000pt" viewBox="0 0 284.000000 242.000000"
 preserveAspectRatio="xMidYMid meet">
<metadata>
Created by potrace 1.15, written by Peter Selinger 2001-2017
</metadata>
<g transform="translate(0.000000,242.000000) scale(0.100000,-0.100000)"
fill="#000000" stroke="none">
<path d="M2270 2153 l-135 -267 -295 -182 -295 -181 -38 20 c-56 29 -152 21
-201 -17 l-37 -28 -137 53 c-75 28 -141 55 -145 59 -5 4 7 47 26 96 68 177 92
253 82 262 -8 8 -202 80 -721 271 l-82 30 -52 -142 c-29 -78 -65 -176 -81
-217 -99 -261 -160 -434 -157 -447 2 -10 143 -67 403 -163 390 -144 400 -148
409 -127 30 70 47 113 81 210 21 60 43 111 49 113 6 2 74 -20 151 -50 l140
-54 7 -47 c11 -75 81 -145 147 -145 22 0 20 6 86 -240 25 -94 33 -136 24 -139
-44 -14 -138 -94 -176 -149 -59 -87 -76 -151 -71 -272 3 -85 8 -105 37 -164
42 -85 112 -155 198 -198 65 -32 72 -33 188 -33 116 0 123 1 188 33 86 43 156
113 199 199 32 65 33 72 33 188 0 116 -1 123 -33 188 -42 86 -113 156 -198
198 -56 28 -80 34 -155 37 -71 4 -89 8 -93 21 -3 9 -26 92 -51 184 l-45 169
24 19 c34 27 56 80 56 136 l0 48 211 130 c116 72 216 132 221 134 5 2 -4 -24
-21 -58 -17 -33 -31 -63 -31 -66 0 -3 194 -5 430 -5 237 0 430 2 430 5 0 10
-425 855 -430 855 -3 0 -66 -120 -140 -267z"/>
</g>
</svg>
